# xmcd
#
# Track frame offsets: 
#        150
#        13685
#        25016
#        37992
#        60983
#        73928
#        87150
#        103543
#        118522
#        131160
#        144447
#        173088
#        182736
#        195508
#        208163
#        217207
#        230923
#        244905
#        255464
#        269828
#
# Disc length: 3768 seconds
#
# Revision: 0
# Processed by: cddbd v1.5.2PL0 Copyright (c) Steve Scherf et al.
# Submitted via: ExactAudioCopyFreeDBPlugin 1.0
#
DISCID=2b0eb614
DTITLE=Ray Charles - Le Coffret
DYEAR=1900
DGENRE=
TTITLE0=A Fool For You
TTITLE1=A Sentimental Blues
TTITLE2=Baby Won't You Please Come Home
TTITLE3=Frenesi
TTITLE4=Alexander's Ragtime Band
TTITLE5=Alone In The City
TTITLE6=Am I Blue
TTITLE7=Moon Over Miami
TTITLE8=My Bonnie
TTITLE9=Blue Hawaii
TTITLE10=Blues Waltz
TTITLE11=California, Here I Come
TTITLE12=Greenbacks
TTITLE13=Can Anyone Ask For More
TTITLE14=Carry Me Back To Old Virginny
TTITLE15=Chattanooga Choo Choo
TTITLE16=Come Back Baby
TTITLE17=Get On The Right Track Baby
TTITLE18=Someday
TTITLE19=Don't Put All Your Dreams In One Basket
EXTD=
EXTT0=
EXTT1=
EXTT2=
EXTT3=
EXTT4=
EXTT5=
EXTT6=
EXTT7=
EXTT8=
EXTT9=
EXTT10=
EXTT11=
EXTT12=
EXTT13=
EXTT14=
EXTT15=
EXTT16=
EXTT17=
EXTT18=
EXTT19=
PLAYORDER=
